<svg width="845" height="1156" viewBox="0 0 845 1156" fill="none" xmlns="http://www.w3.org/2000/svg">
<path d="M219 39L728.202 1.59073C812.201 -4.58039 870.54 83.6094 832 158.5V158.5L721.771 315.275C636.186 436.999 472.832 475.026 342.288 403.616L318.415 390.557C275.741 367.213 226.404 359.057 178.488 367.424V367.424C25.8308 394.082 -49.1302 568.783 36.7362 697.786L163.95 888.908C168.642 895.958 173.897 902.616 179.664 908.819V908.819C225.817 958.46 298.615 972.88 360.206 944.581L466.068 895.942C526.367 868.237 597.861 889.596 633.08 945.837V945.837C670.728 1005.96 654.139 1085.08 595.514 1125.02L551.5 1155" stroke="black" stroke-dasharray="20 20"/>
</svg>
